<svg width="50" height="20" viewBox="0 0 50 20" fill="none" xmlns="http://www.w3.org/2000/svg">
<path d="M15.54 0L10.836 14.784L5.964 0H0V0.812001H2.1V18.788H0V19.6H5.18V18.788H3.08V0.924H3.192L9.408 19.6H10.248L16.24 0.924H16.352V18.788H14.252V19.6H21.392V18.788H19.292V0.812001H21.392V0H15.54Z" fill="#FAF8F3"/>
<path d="M29.5972 17.3279C29.0026 17.3279 28.7927 17.0831 28.7927 16.7858C28.7927 16.6809 28.8277 16.576 28.8627 16.4536H29.3873C29.4573 16.2088 29.4922 15.999 29.4922 15.8241C29.4922 15.2121 29.125 14.9498 28.6353 14.9498C28.0582 14.9498 27.586 15.3694 27.586 16.2088C27.586 16.9082 28.0757 17.8 29.5797 17.8C31.6433 17.8 33.0948 16.2438 33.0948 14.0405C33.0948 12.6766 32.4477 11.5924 31.5908 10.6481C31.9056 9.70387 32.0805 8.72464 32.2029 7.69295H33.3921V7.2383H30.3492V7.69295H31.6258C31.5558 8.54978 31.3984 9.44158 31.1361 10.246C30.4541 9.65142 29.7371 9.1618 28.9851 8.68967C28.1806 8.18256 27.3762 7.69294 26.6242 7.15087C28.2856 6.3465 29.4748 5.34978 29.4748 3.9159C29.4748 2.60442 28.5829 1.80005 27.0089 1.80005C25.2077 1.80005 23.4589 2.95415 23.4589 5.06999C23.4589 6.11917 23.9485 7.1159 24.5781 7.78038C23.284 8.54978 22.3921 9.47655 22.3921 10.9979C22.3921 13.4285 24.3158 14.4252 26.6592 14.4252C28.5829 14.4252 29.877 13.6208 30.7164 12.4492C31.276 13.1837 31.6433 13.9356 31.6433 14.9673C31.6433 16.3312 31.0137 17.3279 29.5972 17.3279ZM27.1139 13.6733C25.3651 13.6733 24.1584 12.694 24.1584 10.5957C24.1584 9.35415 24.4032 8.75961 24.9978 8.18256C25.8023 8.88202 26.8341 9.45907 27.9008 10.1235C28.8452 10.7356 29.6846 11.3126 30.2967 11.9771C29.5972 12.9913 28.5829 13.6733 27.1139 13.6733ZM24.9978 4.24814C24.9978 2.79677 25.9771 2.18475 26.9215 2.18475C27.7085 2.18475 28.408 2.67437 28.408 3.88092C28.408 5.01754 27.7609 6.17163 26.3094 6.88857C25.5399 6.22409 24.9978 5.29732 24.9978 4.24814Z" fill="#ABC6C8"/>
<path d="M34.3921 0V0.812001H36.7721V18.788H34.3921V19.6H40.6641C45.7321 19.6 49.4561 18.508 49.4561 14.056C49.4561 11.396 47.4401 9.688 44.2481 9.24V9.184C46.9921 8.708 48.4761 7.224 48.4761 4.676C48.4761 1.092 45.4521 0 40.8041 0H34.3921ZM39.7121 9.8H41.1961C44.9201 9.8 46.2081 11.088 46.2081 14.196C46.2081 17.668 44.9481 18.788 41.0281 18.788H39.7121V9.8ZM39.7121 0.812001H40.6081C44.1641 0.812001 45.4521 1.764 45.4521 4.76C45.4521 7.784 44.1921 9.072 40.4401 9.072H39.7121V0.812001Z" fill="#FAF8F3"/>
</svg>
