<svg width="1440" height="131" viewBox="0 0 1440 131" fill="none" xmlns="http://www.w3.org/2000/svg">
<mask id="mask0_150_59" style="mask-type:alpha" maskUnits="userSpaceOnUse" x="0" y="0" width="1440" height="131">
<rect width="1440" height="131" fill="#D9D9D9"/>
</mask>
<g mask="url(#mask0_150_59)">
<path d="M197.233 70.4823L162.223 131.122L127.213 70.4822L197.233 70.4823Z" stroke="#ABC6C8"/>
<path d="M15.3617 70.4823L-19.6485 131.122L-54.6587 70.4822L15.3617 70.4823Z" stroke="#ABC6C8"/>
<path d="M287.086 70.4823L251.643 131.131L216.201 70.4822L287.086 70.4823Z" stroke="#ABC6C8"/>
<path d="M104.277 70.4823L69.2671 131.122L34.2568 70.4822L104.277 70.4823Z" stroke="#ABC6C8"/>
<path d="M376.074 70.4823L341.064 131.122L306.054 70.4822L376.074 70.4823Z" stroke="#ABC6C8"/>
<path d="M165.608 61.399L200.618 0.759531L235.628 61.399L165.608 61.399Z" stroke="#ABC6C8"/>
<path d="M-17.2004 61.399L18.2421 0.750506L53.6845 61.399L-17.2004 61.399Z" stroke="#ABC6C8"/>
<path d="M254.524 61.399L289.534 0.759531L324.544 61.399L254.524 61.399Z" stroke="#ABC6C8"/>
<path d="M72.6514 61.399L107.662 0.759531L142.672 61.399L72.6514 61.399Z" stroke="#ABC6C8"/>
<path d="M344.448 61.399L379.459 0.759531L414.469 61.399L344.448 61.399Z" stroke="#ABC6C8"/>
<path d="M215.42 70.4823L180.41 131.122L145.4 70.4822L215.42 70.4823Z" stroke="#ABC6C8"/>
<path d="M33.5488 70.4823L-1.46146 131.122L-36.4717 70.4822L33.5488 70.4823Z" stroke="#ABC6C8"/>
<path d="M305.346 70.4823L270.336 131.122L235.326 70.4822L305.346 70.4823Z" stroke="#ABC6C8"/>
<path d="M123.474 70.4823L88.4638 131.122L53.4536 70.4822L123.474 70.4823Z" stroke="#ABC6C8"/>
<path d="M395.271 70.4823L360.261 131.122L325.251 70.4822L395.271 70.4823Z" stroke="#ABC6C8"/>
<path d="M146.41 61.399L181.42 0.759531L216.431 61.399L146.41 61.399Z" stroke="#ABC6C8"/>
<path d="M-35.4609 61.399L-0.450642 0.759531L34.5596 61.399L-35.4609 61.399Z" stroke="#ABC6C8"/>
<path d="M236.336 61.399L271.346 0.759531L306.356 61.399L236.336 61.399Z" stroke="#ABC6C8"/>
<path d="M54.4649 61.399L89.4751 0.759531L124.485 61.399L54.4649 61.399Z" stroke="#ABC6C8"/>
<path d="M325.251 61.399L360.261 0.759531L395.271 61.399L325.251 61.399Z" stroke="#ABC6C8"/>
<path d="M235.629 70.4823L200.619 131.122L165.608 70.4822L235.629 70.4823Z" stroke="#ABC6C8"/>
<path d="M53.6843 70.4823L18.2418 131.131L-17.2006 70.4822L53.6843 70.4823Z" stroke="#ABC6C8"/>
<path d="M324.543 70.4823L289.533 131.122L254.523 70.4822L324.543 70.4823Z" stroke="#ABC6C8"/>
<path d="M142.672 70.4823L107.662 131.122L72.6514 70.4822L142.672 70.4823Z" stroke="#ABC6C8"/>
<path d="M414.469 70.4823L379.459 131.122L344.449 70.4822L414.469 70.4823Z" stroke="#ABC6C8"/>
<path d="M127.213 61.399L162.223 0.759531L197.233 61.399L127.213 61.399Z" stroke="#ABC6C8"/>
<path d="M-54.6581 61.399L-19.6479 0.759531L15.3623 61.399L-54.6581 61.399Z" stroke="#ABC6C8"/>
<path d="M216.2 61.399L251.643 0.750506L287.085 61.399L216.2 61.399Z" stroke="#ABC6C8"/>
<path d="M34.2564 61.399L69.2666 0.759531L104.277 61.399L34.2564 61.399Z" stroke="#ABC6C8"/>
<path d="M306.053 61.399L341.064 0.759531L376.074 61.399L306.053 61.399Z" stroke="#ABC6C8"/>
<path d="M464.989 70.4823L429.978 131.122L394.968 70.4822L464.989 70.4823Z" stroke="#ABC6C8"/>
<path d="M736.786 70.4823L701.775 131.122L666.765 70.4822L736.786 70.4823Z" stroke="#ABC6C8"/>
<path d="M554.914 70.4823L519.904 131.122L484.894 70.4822L554.914 70.4823Z" stroke="#ABC6C8"/>
<path d="M826.638 70.4823L791.195 131.131L755.753 70.4822L826.638 70.4823Z" stroke="#ABC6C8"/>
<path d="M643.83 70.4823L608.819 131.122L573.809 70.4822L643.83 70.4823Z" stroke="#ABC6C8"/>
<path d="M915.627 70.4823L880.617 131.122L845.606 70.4822L915.627 70.4823Z" stroke="#ABC6C8"/>
<path d="M433.364 61.399L468.374 0.759531L503.384 61.399L433.364 61.399Z" stroke="#ABC6C8"/>
<path d="M705.161 61.399L740.171 0.759531L775.181 61.399L705.161 61.399Z" stroke="#ABC6C8"/>
<path d="M522.351 61.399L557.794 0.750506L593.236 61.399L522.351 61.399Z" stroke="#ABC6C8"/>
<path d="M794.075 61.399L829.085 0.759531L864.095 61.399L794.075 61.399Z" stroke="#ABC6C8"/>
<path d="M612.204 61.399L647.214 0.759531L682.225 61.399L612.204 61.399Z" stroke="#ABC6C8"/>
<path d="M884.001 61.399L919.011 0.759531L954.021 61.399L884.001 61.399Z" stroke="#ABC6C8"/>
<path d="M484.187 70.4823L449.177 131.122L414.167 70.4822L484.187 70.4823Z" stroke="#ABC6C8"/>
<path d="M754.973 70.4823L719.963 131.122L684.953 70.4822L754.973 70.4823Z" stroke="#ABC6C8"/>
<path d="M573.101 70.4823L538.091 131.122L503.081 70.4822L573.101 70.4823Z" stroke="#ABC6C8"/>
<path d="M844.898 70.4823L809.888 131.122L774.877 70.4822L844.898 70.4823Z" stroke="#ABC6C8"/>
<path d="M663.027 70.4823L628.017 131.122L593.006 70.4822L663.027 70.4823Z" stroke="#ABC6C8"/>
<path d="M934.824 70.4823L899.814 131.122L864.804 70.4822L934.824 70.4823Z" stroke="#ABC6C8"/>
<path d="M414.166 61.399L449.176 0.759531L484.187 61.399L414.166 61.399Z" stroke="#ABC6C8"/>
<path d="M685.962 61.399L720.973 0.759531L755.983 61.399L685.962 61.399Z" stroke="#ABC6C8"/>
<path d="M504.091 61.399L539.101 0.759531L574.111 61.399L504.091 61.399Z" stroke="#ABC6C8"/>
<path d="M775.889 61.399L810.899 0.759531L845.909 61.399L775.889 61.399Z" stroke="#ABC6C8"/>
<path d="M594.017 61.399L629.027 0.759531L664.037 61.399L594.017 61.399Z" stroke="#ABC6C8"/>
<path d="M864.804 61.399L899.814 0.759531L934.824 61.399L864.804 61.399Z" stroke="#ABC6C8"/>
<path d="M503.384 70.4823L468.374 131.122L433.364 70.4822L503.384 70.4823Z" stroke="#ABC6C8"/>
<path d="M775.181 70.4823L740.171 131.122L705.161 70.4822L775.181 70.4823Z" stroke="#ABC6C8"/>
<path d="M593.237 70.4823L557.794 131.131L522.352 70.4822L593.237 70.4823Z" stroke="#ABC6C8"/>
<path d="M864.096 70.4823L829.086 131.122L794.076 70.4822L864.096 70.4823Z" stroke="#ABC6C8"/>
<path d="M682.225 70.4823L647.214 131.122L612.204 70.4822L682.225 70.4823Z" stroke="#ABC6C8"/>
<path d="M954.021 70.4823L919.011 131.122L884.001 70.4822L954.021 70.4823Z" stroke="#ABC6C8"/>
<path d="M394.968 61.399L429.979 0.759531L464.989 61.399L394.968 61.399Z" stroke="#ABC6C8"/>
<path d="M666.766 61.399L701.776 0.759531L736.786 61.399L666.766 61.399Z" stroke="#ABC6C8"/>
<path d="M484.894 61.399L519.904 0.759531L554.915 61.399L484.894 61.399Z" stroke="#ABC6C8"/>
<path d="M755.754 61.399L791.196 0.750506L826.639 61.399L755.754 61.399Z" stroke="#ABC6C8"/>
<path d="M573.808 61.399L608.818 0.759531L643.829 61.399L573.808 61.399Z" stroke="#ABC6C8"/>
<path d="M845.606 61.399L880.616 0.759531L915.626 61.399L845.606 61.399Z" stroke="#ABC6C8"/>
<path d="M1005.55 70.4823L970.541 131.122L935.531 70.4822L1005.55 70.4823Z" stroke="#ABC6C8"/>
<path d="M1277.35 70.4823L1242.34 131.122L1207.33 70.4822L1277.35 70.4823Z" stroke="#ABC6C8"/>
<path d="M1095.48 70.4823L1060.47 131.122L1025.46 70.4822L1095.48 70.4823Z" stroke="#ABC6C8"/>
<path d="M1367.2 70.4823L1331.76 131.131L1296.32 70.4822L1367.2 70.4823Z" stroke="#ABC6C8"/>
<path d="M1184.39 70.4823L1149.38 131.122L1114.37 70.4822L1184.39 70.4823Z" stroke="#ABC6C8"/>
<path d="M1456.19 70.4823L1421.18 131.122L1386.17 70.4822L1456.19 70.4823Z" stroke="#ABC6C8"/>
<path d="M973.926 61.399L1008.94 0.759531L1043.95 61.399L973.926 61.399Z" stroke="#ABC6C8"/>
<path d="M1245.72 61.399L1280.73 0.759531L1315.74 61.399L1245.72 61.399Z" stroke="#ABC6C8"/>
<path d="M1062.91 61.399L1098.36 0.750506L1133.8 61.399L1062.91 61.399Z" stroke="#ABC6C8"/>
<path d="M1334.64 61.399L1369.65 0.759531L1404.66 61.399L1334.64 61.399Z" stroke="#ABC6C8"/>
<path d="M1152.77 61.399L1187.78 0.759531L1222.79 61.399L1152.77 61.399Z" stroke="#ABC6C8"/>
<path d="M1424.56 61.399L1459.57 0.759531L1494.58 61.399L1424.56 61.399Z" stroke="#ABC6C8"/>
<path d="M1024.75 70.4823L989.739 131.122L954.729 70.4822L1024.75 70.4823Z" stroke="#ABC6C8"/>
<path d="M1295.54 70.4823L1260.53 131.122L1225.52 70.4822L1295.54 70.4823Z" stroke="#ABC6C8"/>
<path d="M1113.66 70.4823L1078.65 131.122L1043.64 70.4822L1113.66 70.4823Z" stroke="#ABC6C8"/>
<path d="M1385.46 70.4823L1350.45 131.122L1315.44 70.4822L1385.46 70.4823Z" stroke="#ABC6C8"/>
<path d="M1203.59 70.4823L1168.58 131.122L1133.57 70.4822L1203.59 70.4823Z" stroke="#ABC6C8"/>
<path d="M1475.39 70.4823L1440.38 131.122L1405.37 70.4822L1475.39 70.4823Z" stroke="#ABC6C8"/>
<path d="M954.729 61.399L989.739 0.759531L1024.75 61.399L954.729 61.399Z" stroke="#ABC6C8"/>
<path d="M1226.53 61.399L1261.54 0.759531L1296.55 61.399L1226.53 61.399Z" stroke="#ABC6C8"/>
<path d="M1044.65 61.399L1079.66 0.759531L1114.67 61.399L1044.65 61.399Z" stroke="#ABC6C8"/>
<path d="M1316.45 61.399L1351.46 0.759531L1386.47 61.399L1316.45 61.399Z" stroke="#ABC6C8"/>
<path d="M1134.58 61.399L1169.59 0.759531L1204.6 61.399L1134.58 61.399Z" stroke="#ABC6C8"/>
<path d="M1405.37 61.399L1440.38 0.759531L1475.39 61.399L1405.37 61.399Z" stroke="#ABC6C8"/>
<path d="M1043.95 70.4823L1008.94 131.122L973.927 70.4822L1043.95 70.4823Z" stroke="#ABC6C8"/>
<path d="M1315.74 70.4823L1280.73 131.122L1245.72 70.4822L1315.74 70.4823Z" stroke="#ABC6C8"/>
<path d="M1133.8 70.4823L1098.36 131.131L1062.91 70.4822L1133.8 70.4823Z" stroke="#ABC6C8"/>
<path d="M1404.66 70.4823L1369.65 131.122L1334.64 70.4822L1404.66 70.4823Z" stroke="#ABC6C8"/>
<path d="M1222.79 70.4823L1187.78 131.122L1152.77 70.4822L1222.79 70.4823Z" stroke="#ABC6C8"/>
<path d="M1494.58 70.4823L1459.57 131.122L1424.56 70.4822L1494.58 70.4823Z" stroke="#ABC6C8"/>
<path d="M935.531 61.399L970.541 0.759531L1005.55 61.399L935.531 61.399Z" stroke="#ABC6C8"/>
<path d="M1207.33 61.399L1242.34 0.759531L1277.35 61.399L1207.33 61.399Z" stroke="#ABC6C8"/>
<path d="M1025.46 61.399L1060.47 0.759531L1095.48 61.399L1025.46 61.399Z" stroke="#ABC6C8"/>
<path d="M1296.32 61.399L1331.76 0.750506L1367.2 61.399L1296.32 61.399Z" stroke="#ABC6C8"/>
<path d="M1114.37 61.399L1149.38 0.759531L1184.39 61.399L1114.37 61.399Z" stroke="#ABC6C8"/>
<path d="M1386.17 61.399L1421.18 0.759531L1456.19 61.399L1386.17 61.399Z" stroke="#ABC6C8"/>
</g>
</svg>
