<svg width="566" height="82" viewBox="0 0 566 82" fill="none" xmlns="http://www.w3.org/2000/svg">
<path d="M75.641 21L41 81L6.35898 21L75.641 21Z" stroke="#ABC6C8"/>
<path d="M344.641 21L310 81L275.359 21L344.641 21Z" stroke="#ABC6C8"/>
<path d="M164.641 21L130 81L95.359 21L164.641 21Z" stroke="#ABC6C8"/>
<path d="M433.569 21L398.5 81.009L363.431 21L433.569 21Z" stroke="#ABC6C8"/>
<path d="M252.641 21L218 81L183.359 21L252.641 21Z" stroke="#ABC6C8"/>
<path d="M521.641 21L487 81L452.359 21L521.641 21Z" stroke="#ABC6C8"/>
<path d="M94.641 21L60 81L25.359 21L94.641 21Z" stroke="#ABC6C8"/>
<path d="M362.641 21L328 81L293.359 21L362.641 21Z" stroke="#ABC6C8"/>
<path d="M182.641 21L148 81L113.359 21L182.641 21Z" stroke="#ABC6C8"/>
<path d="M451.641 21L417 81L382.359 21L451.641 21Z" stroke="#ABC6C8"/>
<path d="M271.641 21L237 81L202.359 21L271.641 21Z" stroke="#ABC6C8"/>
<path d="M540.641 21L506 81L471.359 21L540.641 21Z" stroke="#ABC6C8"/>
<path d="M113.641 21L79 81L44.359 21L113.641 21Z" stroke="#ABC6C8"/>
<path d="M382.641 21L348 81L313.359 21L382.641 21Z" stroke="#ABC6C8"/>
<path d="M202.569 21L167.5 81.009L132.431 21L202.569 21Z" stroke="#ABC6C8"/>
<path d="M470.641 21L436 81L401.359 21L470.641 21Z" stroke="#ABC6C8"/>
<path d="M290.641 21L256 81L221.359 21L290.641 21Z" stroke="#ABC6C8"/>
<path d="M559.641 21L525 81L490.359 21L559.641 21Z" stroke="#ABC6C8"/>
</svg>
