<svg width="131" height="1635" viewBox="0 0 131 1635" fill="none" xmlns="http://www.w3.org/2000/svg">
<path d="M61 75.641L1.00001 41L61 6.35899L61 75.641Z" stroke="#ABC6C8"/>
<path d="M61 344.641L1.00001 310L61 275.359L61 344.641Z" stroke="#ABC6C8"/>
<path d="M61 164.641L1.00001 130L61 95.359L61 164.641Z" stroke="#ABC6C8"/>
<path d="M61 433.569L0.990982 398.5L61 363.431L61 433.569Z" stroke="#ABC6C8"/>
<path d="M61 252.641L1.00001 218L61 183.359L61 252.641Z" stroke="#ABC6C8"/>
<path d="M61 521.641L1.00001 487L61 452.359L61 521.641Z" stroke="#ABC6C8"/>
<path d="M70 44.359L130 79L70 113.641L70 44.359Z" stroke="#ABC6C8"/>
<path d="M70 313.359L130 348L70 382.641L70 313.359Z" stroke="#ABC6C8"/>
<path d="M70 132.431L130.009 167.5L70 202.569L70 132.431Z" stroke="#ABC6C8"/>
<path d="M70 401.359L130 436L70 470.641L70 401.359Z" stroke="#ABC6C8"/>
<path d="M70 221.359L130 256L70 290.641L70 221.359Z" stroke="#ABC6C8"/>
<path d="M70 490.359L130 525L70 559.641L70 490.359Z" stroke="#ABC6C8"/>
<path d="M61 94.641L1.00001 60L61 25.359L61 94.641Z" stroke="#ABC6C8"/>
<path d="M61 362.641L1.00001 328L61 293.359L61 362.641Z" stroke="#ABC6C8"/>
<path d="M61 182.641L1.00001 148L61 113.359L61 182.641Z" stroke="#ABC6C8"/>
<path d="M61 451.641L1.00001 417L61 382.359L61 451.641Z" stroke="#ABC6C8"/>
<path d="M61 271.641L1.00001 237L61 202.359L61 271.641Z" stroke="#ABC6C8"/>
<path d="M61 540.641L1.00001 506L61 471.359L61 540.641Z" stroke="#ABC6C8"/>
<path d="M70 25.359L130 60L70 94.641L70 25.359Z" stroke="#ABC6C8"/>
<path d="M70 294.359L130 329L70 363.641L70 294.359Z" stroke="#ABC6C8"/>
<path d="M70 114.359L130 149L70 183.641L70 114.359Z" stroke="#ABC6C8"/>
<path d="M70 383.359L130 418L70 452.641L70 383.359Z" stroke="#ABC6C8"/>
<path d="M70 203.359L130 238L70 272.641L70 203.359Z" stroke="#ABC6C8"/>
<path d="M70 471.359L130 506L70 540.641L70 471.359Z" stroke="#ABC6C8"/>
<path d="M61 113.641L1.00001 79L61 44.359L61 113.641Z" stroke="#ABC6C8"/>
<path d="M61 382.641L1.00001 348L61 313.359L61 382.641Z" stroke="#ABC6C8"/>
<path d="M61 202.569L0.990982 167.5L61 132.431L61 202.569Z" stroke="#ABC6C8"/>
<path d="M61 470.641L1.00001 436L61 401.359L61 470.641Z" stroke="#ABC6C8"/>
<path d="M61 290.641L1.00001 256L61 221.359L61 290.641Z" stroke="#ABC6C8"/>
<path d="M61 559.641L1.00001 525L61 490.359L61 559.641Z" stroke="#ABC6C8"/>
<path d="M70 6.35897L130 41L70 75.641L70 6.35897Z" stroke="#ABC6C8"/>
<path d="M70 275.359L130 310L70 344.641L70 275.359Z" stroke="#ABC6C8"/>
<path d="M70 95.359L130 130L70 164.641L70 95.359Z" stroke="#ABC6C8"/>
<path d="M70 363.431L130.009 398.5L70 433.569L70 363.431Z" stroke="#ABC6C8"/>
<path d="M70 183.359L130 218L70 252.641L70 183.359Z" stroke="#ABC6C8"/>
<path d="M70 452.359L130 487L70 521.641L70 452.359Z" stroke="#ABC6C8"/>
<path d="M61 609.641L1.00001 575L61 540.359L61 609.641Z" stroke="#ABC6C8"/>
<path d="M61 878.641L1.00001 844L61 809.359L61 878.641Z" stroke="#ABC6C8"/>
<path d="M61 698.641L1.00001 664L61 629.359L61 698.641Z" stroke="#ABC6C8"/>
<path d="M61 967.569L0.990982 932.5L61 897.431L61 967.569Z" stroke="#ABC6C8"/>
<path d="M61 786.641L1.00001 752L61 717.359L61 786.641Z" stroke="#ABC6C8"/>
<path d="M61 1055.64L1.00001 1021L61 986.359L61 1055.64Z" stroke="#ABC6C8"/>
<path d="M70 578.359L130 613L70 647.641L70 578.359Z" stroke="#ABC6C8"/>
<path d="M70 847.359L130 882L70 916.641L70 847.359Z" stroke="#ABC6C8"/>
<path d="M70 666.431L130.009 701.5L70 736.569L70 666.431Z" stroke="#ABC6C8"/>
<path d="M70 935.359L130 970L70 1004.64L70 935.359Z" stroke="#ABC6C8"/>
<path d="M70 755.359L130 790L70 824.641L70 755.359Z" stroke="#ABC6C8"/>
<path d="M70 1024.36L130 1059L70 1093.64L70 1024.36Z" stroke="#ABC6C8"/>
<path d="M61 628.641L1.00001 594L61 559.359L61 628.641Z" stroke="#ABC6C8"/>
<path d="M61 896.641L1.00001 862L61 827.359L61 896.641Z" stroke="#ABC6C8"/>
<path d="M61 716.641L1.00001 682L61 647.359L61 716.641Z" stroke="#ABC6C8"/>
<path d="M61 985.641L1.00001 951L61 916.359L61 985.641Z" stroke="#ABC6C8"/>
<path d="M61 805.641L1.00001 771L61 736.359L61 805.641Z" stroke="#ABC6C8"/>
<path d="M61 1074.64L1.00001 1040L61 1005.36L61 1074.64Z" stroke="#ABC6C8"/>
<path d="M70 559.359L130 594L70 628.641L70 559.359Z" stroke="#ABC6C8"/>
<path d="M70 828.359L130 863L70 897.641L70 828.359Z" stroke="#ABC6C8"/>
<path d="M70 648.359L130 683L70 717.641L70 648.359Z" stroke="#ABC6C8"/>
<path d="M70 917.359L130 952L70 986.641L70 917.359Z" stroke="#ABC6C8"/>
<path d="M70 737.359L130 772L70 806.641L70 737.359Z" stroke="#ABC6C8"/>
<path d="M70 1005.36L130 1040L70 1074.64L70 1005.36Z" stroke="#ABC6C8"/>
<path d="M61 647.641L1.00001 613L61 578.359L61 647.641Z" stroke="#ABC6C8"/>
<path d="M61 916.641L1.00001 882L61 847.359L61 916.641Z" stroke="#ABC6C8"/>
<path d="M61 736.569L0.990982 701.5L61 666.431L61 736.569Z" stroke="#ABC6C8"/>
<path d="M61 1004.64L1.00001 970L61 935.359L61 1004.64Z" stroke="#ABC6C8"/>
<path d="M61 824.641L1.00001 790L61 755.359L61 824.641Z" stroke="#ABC6C8"/>
<path d="M61 1093.64L1.00001 1059L61 1024.36L61 1093.64Z" stroke="#ABC6C8"/>
<path d="M70 540.359L130 575L70 609.641L70 540.359Z" stroke="#ABC6C8"/>
<path d="M70 809.359L130 844L70 878.641L70 809.359Z" stroke="#ABC6C8"/>
<path d="M70 629.359L130 664L70 698.641L70 629.359Z" stroke="#ABC6C8"/>
<path d="M70 897.431L130.009 932.5L70 967.569L70 897.431Z" stroke="#ABC6C8"/>
<path d="M70 717.359L130 752L70 786.641L70 717.359Z" stroke="#ABC6C8"/>
<path d="M70 986.359L130 1021L70 1055.64L70 986.359Z" stroke="#ABC6C8"/>
<path d="M61 1144.64L1.00001 1110L61 1075.36L61 1144.64Z" stroke="#ABC6C8"/>
<path d="M61 1413.64L1.00001 1379L61 1344.36L61 1413.64Z" stroke="#ABC6C8"/>
<path d="M61 1233.64L1.00001 1199L61 1164.36L61 1233.64Z" stroke="#ABC6C8"/>
<path d="M61 1502.57L0.990982 1467.5L61 1432.43L61 1502.57Z" stroke="#ABC6C8"/>
<path d="M61 1321.64L1.00001 1287L61 1252.36L61 1321.64Z" stroke="#ABC6C8"/>
<path d="M61 1590.64L1.00001 1556L61 1521.36L61 1590.64Z" stroke="#ABC6C8"/>
<path d="M70 1113.36L130 1148L70 1182.64L70 1113.36Z" stroke="#ABC6C8"/>
<path d="M70 1382.36L130 1417L70 1451.64L70 1382.36Z" stroke="#ABC6C8"/>
<path d="M70 1201.43L130.009 1236.5L70 1271.57L70 1201.43Z" stroke="#ABC6C8"/>
<path d="M70 1470.36L130 1505L70 1539.64L70 1470.36Z" stroke="#ABC6C8"/>
<path d="M70 1290.36L130 1325L70 1359.64L70 1290.36Z" stroke="#ABC6C8"/>
<path d="M70 1559.36L130 1594L70 1628.64L70 1559.36Z" stroke="#ABC6C8"/>
<path d="M61 1163.64L1.00001 1129L61 1094.36L61 1163.64Z" stroke="#ABC6C8"/>
<path d="M61 1431.64L1.00001 1397L61 1362.36L61 1431.64Z" stroke="#ABC6C8"/>
<path d="M61 1251.64L1.00001 1217L61 1182.36L61 1251.64Z" stroke="#ABC6C8"/>
<path d="M61 1520.64L1.00001 1486L61 1451.36L61 1520.64Z" stroke="#ABC6C8"/>
<path d="M61 1340.64L1.00001 1306L61 1271.36L61 1340.64Z" stroke="#ABC6C8"/>
<path d="M61 1609.64L1.00001 1575L61 1540.36L61 1609.64Z" stroke="#ABC6C8"/>
<path d="M70 1094.36L130 1129L70 1163.64L70 1094.36Z" stroke="#ABC6C8"/>
<path d="M70 1363.36L130 1398L70 1432.64L70 1363.36Z" stroke="#ABC6C8"/>
<path d="M70 1183.36L130 1218L70 1252.64L70 1183.36Z" stroke="#ABC6C8"/>
<path d="M70 1452.36L130 1487L70 1521.64L70 1452.36Z" stroke="#ABC6C8"/>
<path d="M70 1272.36L130 1307L70 1341.64L70 1272.36Z" stroke="#ABC6C8"/>
<path d="M70 1540.36L130 1575L70 1609.64L70 1540.36Z" stroke="#ABC6C8"/>
<path d="M61 1182.64L1.00001 1148L61 1113.36L61 1182.64Z" stroke="#ABC6C8"/>
<path d="M61 1451.64L1.00001 1417L61 1382.36L61 1451.64Z" stroke="#ABC6C8"/>
<path d="M61 1271.57L0.990982 1236.5L61 1201.43L61 1271.57Z" stroke="#ABC6C8"/>
<path d="M61 1539.64L1.00001 1505L61 1470.36L61 1539.64Z" stroke="#ABC6C8"/>
<path d="M61 1359.64L1.00001 1325L61 1290.36L61 1359.64Z" stroke="#ABC6C8"/>
<path d="M61 1628.64L1.00001 1594L61 1559.36L61 1628.64Z" stroke="#ABC6C8"/>
<path d="M70 1075.36L130 1110L70 1144.64L70 1075.36Z" stroke="#ABC6C8"/>
<path d="M70 1344.36L130 1379L70 1413.64L70 1344.36Z" stroke="#ABC6C8"/>
<path d="M70 1164.36L130 1199L70 1233.64L70 1164.36Z" stroke="#ABC6C8"/>
<path d="M70 1432.43L130.009 1467.5L70 1502.57L70 1432.43Z" stroke="#ABC6C8"/>
<path d="M70 1252.36L130 1287L70 1321.64L70 1252.36Z" stroke="#ABC6C8"/>
<path d="M70 1521.36L130 1556L70 1590.64L70 1521.36Z" stroke="#ABC6C8"/>
</svg>
